<?xml version="1.0" encoding="UTF-8" standalone="no"?>
<!DOCTYPE svg PUBLIC "-//W3C//DTD SVG 1.1//EN" "http://www.w3.org/Graphics/SVG/1.1/DTD/svg11.dtd">
<svg version="1.1" xmlns="http://www.w3.org/2000/svg" xmlns:xlink="http://www.w3.org/1999/xlink" preserveAspectRatio="xMidYMid meet" viewBox="0 0 280 280" width="280" height="280"><defs><path d="M0 0L132 0L132 132L0 132L0 0Z" id="h78BYsXhGZ"></path><path d="M148 148L280 148L280 280L148 280L148 148Z" id="aqWpmy35m"></path><path d="M37.5 37.51L94.5 37.51L94.5 94.51L37.5 94.51L37.5 37.51Z" id="a27dmBsRH4"></path><path d="M185.5 185.5L242.5 185.5L242.5 242.5L185.5 242.5L185.5 185.5Z" id="iU4acl8wI"></path><path d="M56 56L224 56L224 224L56 224L56 56Z" id="a30utWt0RT"></path><path d="M74 74L206 74L206 206L74 206L74 74Z" id="c1g0ovdwGK"></path></defs><g><g><g><use xlink:href="#h78BYsXhGZ" opacity="1" fill="#000000" fill-opacity="1"></use></g><g><use xlink:href="#aqWpmy35m" opacity="1" fill="#000000" fill-opacity="1"></use></g><g><use xlink:href="#a27dmBsRH4" opacity="1" fill="#ffffff" fill-opacity="1"></use></g><g><use xlink:href="#iU4acl8wI" opacity="1" fill="#ffffff" fill-opacity="1"></use></g><g><use xlink:href="#a30utWt0RT" opacity="1" fill="#ffffff" fill-opacity="1"></use></g><g><use xlink:href="#c1g0ovdwGK" opacity="1" fill="#000000" fill-opacity="1"></use></g></g></g></svg>