<?xml version="1.0" encoding="UTF-8" standalone="no"?>
<!DOCTYPE svg PUBLIC "-//W3C//DTD SVG 1.1//EN" "http://www.w3.org/Graphics/SVG/1.1/DTD/svg11.dtd">
<svg version="1.1" xmlns="http://www.w3.org/2000/svg" xmlns:xlink="http://www.w3.org/1999/xlink" preserveAspectRatio="xMidYMid meet" viewBox="0 0 280 280" width="280" height="280"><defs><path d="M0 0L132 0L132 132L0 132L0 0Z" id="bjdnDRQ28"></path><path d="M148 148L280 148L280 280L148 280L148 148Z" id="a25AUP3Q2u"></path><path d="M75 148L132 148L132 205L75 205L75 148Z" id="f101BR487d"></path><path d="M148 75L205 75L205 132L148 132L148 75Z" id="d1ppiXfTIV"></path><path d="M37.5 37.5L94.5 37.5L94.5 94.5L37.5 94.5L37.5 37.5Z" id="a1GiOpCaii"></path><path d="M185.5 185.5L242.5 185.5L242.5 242.5L185.5 242.5L185.5 185.5Z" id="fWwReI7aa"></path></defs><g><g><g><use xlink:href="#bjdnDRQ28" opacity="1" fill="#000000" fill-opacity="1"></use></g><g><use xlink:href="#a25AUP3Q2u" opacity="1" fill="#000000" fill-opacity="1"></use></g><g><use xlink:href="#f101BR487d" opacity="1" fill="#000000" fill-opacity="1"></use></g><g><use xlink:href="#d1ppiXfTIV" opacity="1" fill="#000000" fill-opacity="1"></use></g><g><use xlink:href="#a1GiOpCaii" opacity="1" fill="#ffffff" fill-opacity="1"></use></g><g><use xlink:href="#fWwReI7aa" opacity="1" fill="#ffffff" fill-opacity="1"></use></g></g></g></svg>