<?xml version="1.0" encoding="utf-8"?>
<!DOCTYPE svg PUBLIC "-//W3C//DTD SVG 1.1//EN" "http://www.w3.org/Graphics/SVG/1.1/DTD/svg11.dtd">
<svg version="1.1" xmlns="http://www.w3.org/2000/svg" x="0px" y="0px" viewBox="0 0 1000 1000" enable-background="new 0 0 1000 1000" xml:space="preserve">
    <metadata> Svg Vector Icons : http://www.onlinewebfonts.com/icon </metadata>
    <g fill="#787878">
        <path d="M685.9,329h-45c-10,0-18.3,8.3-18.3,18.3V827c0,10.1,8.3,18.3,18.3,18.3h45c10,0,18.3-8.3,18.3-18.3V347.3C704.2,337.2,695.9,329,685.9,329z"/>
        <path d="M971.7,173.3H729.1L687.5,65.7C674.3,31.5,643,10,606.3,10H393.8c-36.8,0-68,21.5-81.2,55.7L271,173.3H28.3c-10,0-18.3,8.3-18.3,18.3v45.1c0,10,8.3,18.3,18.3,18.3h104.2v626.5c0,59.7,48.8,108.5,108.5,108.5H759c59.7,0,108.5-48.8,108.5-108.5V255h104.2c10,0,18.3-8.3,18.3-18.3v-45.1C990.1,181.6,981.8,173.3,971.7,173.3z M371.9,118.1c6.6-17.1,22.3-27.9,40.7-27.9h174.9c18.4,0,34.1,10.7,40.6,27.9l21.4,55.2H350.6L371.9,118.1z M786,870.6c0,20.8-17,37.8-37.8,37.8H251.9c-20.8,0-37.7-17-37.7-37.8V255H786V870.6z"/>
        <path d="M359.2,329h-45c-10.1,0-18.3,8.3-18.3,18.3V827c0,10.1,8.2,18.3,18.3,18.3h45c10,0,18.3-8.3,18.3-18.3V347.3C377.6,337.2,369.3,329,359.2,329z"/>
        <path d="M522.5,329h-45c-10,0-18.3,8.3-18.3,18.3V827c0,10.1,8.3,18.3,18.3,18.3h45c10.1,0,18.4-8.3,18.4-18.3V347.3C540.9,337.2,532.6,329,522.5,329z"/>
    </g>
</svg>